<?xml version="1.0" encoding="UTF-8" standalone="no"?><!DOCTYPE svg PUBLIC "-//W3C//DTD SVG 1.1//EN" "http://www.w3.org/Graphics/SVG/1.1/DTD/svg11.dtd"><svg width="100%" height="100%" viewBox="0 0 2250 2250" version="1.1" xmlns="http://www.w3.org/2000/svg" xmlns:xlink="http://www.w3.org/1999/xlink" xml:space="preserve" xmlns:serif="http://www.serif.com/" style="fill-rule:evenodd;clip-rule:evenodd;stroke-linejoin:round;stroke-miterlimit:2;"><rect id="Logo-ECLAIR-sans-texte" serif:id="Logo ECLAIR sans texte" x="0" y="-0" width="2250" height="2250" style="fill:none;"/><g id="Logo-ECLAIR-sans-texte1" serif:id="Logo ECLAIR sans texte"><path id="Engrenage-droit" serif:id="Engrenage droit" d="M775.487,1985.48c71.956,29.227 147.296,49.315 224.257,59.79l-15.228,111.88c93.226,12.689 187.742,12.689 280.968,0l-15.228,-111.88c77.727,-10.58 153.801,-30.963 226.404,-60.665l42.752,104.505c87.081,-35.624 168.934,-82.882 243.326,-140.484l-69.128,-89.277c62.024,-48.026 117.713,-103.715 165.739,-165.739l89.277,69.128c57.602,-74.392 104.86,-156.245 140.484,-243.326l-104.505,-42.752c29.702,-72.603 50.085,-148.677 60.665,-226.404l111.88,15.228c12.689,-93.226 12.689,-187.742 0,-280.968l-111.88,15.228c-10.58,-77.727 -30.963,-153.801 -60.665,-226.404l104.505,-42.752c-35.624,-87.081 -82.882,-168.934 -140.484,-243.326l-89.277,69.128c-35.725,-46.139 -119.352,-127.353 -119.352,-127.353l-118.915,176.375c149.575,124.625 244.194,302.656 244.194,519.588c0,408.57 -331.706,740.276 -740.276,740.276c-69.401,0 -136.585,-9.571 -200.301,-27.464"/><path id="Engrenage-gauche" serif:id="Engrenage gauche" d="M616.586,1662.88c-142.746,-134.984 -231.862,-326.106 -231.862,-537.878c-0,-408.57 331.706,-740.276 740.276,-740.276c69.401,-0 136.585,9.571 200.301,27.464l149.212,-147.668c-68.383,-36.818 -147.296,-49.315 -224.257,-59.79l15.228,-111.88c-93.226,-12.689 -187.742,-12.689 -280.968,-0l15.228,111.88c-77.727,10.58 -153.801,30.963 -226.404,60.665l-42.752,-104.505c-87.081,35.624 -168.934,82.882 -243.326,140.484l69.128,89.277c-62.024,48.026 -117.713,103.715 -165.739,165.739l-89.277,-69.128c-57.602,74.392 -104.86,156.245 -140.484,243.326l104.505,42.752c-29.702,72.603 -50.085,148.677 -60.665,226.404l-111.88,-15.228c-12.689,93.226 -12.689,187.742 -0,280.968l111.88,-15.228c10.58,77.727 30.963,153.801 60.665,226.404l-104.505,42.752c35.624,87.081 82.882,168.934 140.484,243.326l89.277,-69.128c35.725,46.139 75.692,88.772 119.352,127.353"/><path id="ECLAIR" d="M1875,12.5l-1208.33,1195.83l402.222,0l-693.889,1029.17l1208.33,-1195.83l-402.214,-0l693.881,-1029.17Z" style="fill:#ff7e00;"/></g></svg>