<?xml version="1.0" encoding="UTF-8" standalone="no"?><!DOCTYPE svg PUBLIC "-//W3C//DTD SVG 1.1//EN" "http://www.w3.org/Graphics/SVG/1.1/DTD/svg11.dtd"><svg width="100%" height="100%" viewBox="0 0 2250 2250" version="1.1" xmlns="http://www.w3.org/2000/svg" xmlns:xlink="http://www.w3.org/1999/xlink" xml:space="preserve" xmlns:serif="http://www.serif.com/" style="fill-rule:evenodd;clip-rule:evenodd;stroke-linejoin:round;stroke-miterlimit:2;"><rect id="Logo-ECLAIR" serif:id="Logo ECLAIR" x="0" y="0" width="2250" height="2250" style="fill:none;"/><path id="Engrenage-droit" serif:id="Engrenage droit" d="M775.487,1985.48c71.956,29.227 147.296,49.315 224.257,59.79l-15.228,111.88c93.226,12.689 187.742,12.689 280.968,0l-15.228,-111.88c77.727,-10.58 153.801,-30.963 226.404,-60.665l42.752,104.505c87.081,-35.624 168.934,-82.882 243.326,-140.484l-69.128,-89.277c62.024,-48.026 117.713,-103.715 165.739,-165.739l89.277,69.128c57.602,-74.392 104.86,-156.245 140.484,-243.326l-104.505,-42.752c29.702,-72.603 50.085,-148.677 60.665,-226.404l111.88,15.228c12.689,-93.226 12.689,-187.742 0,-280.968l-111.88,15.228c-10.58,-77.727 -30.963,-153.801 -60.665,-226.404l104.505,-42.752c-35.624,-87.081 -82.882,-168.934 -140.484,-243.326l-89.277,69.128c-35.725,-46.139 -119.352,-127.353 -119.352,-127.353l-118.915,176.375c149.575,124.625 244.194,302.656 244.194,519.588c0,408.57 -331.706,740.276 -740.276,740.276c-69.401,0 -136.585,-9.571 -200.301,-27.464"/><path id="Engrenage-gauche" serif:id="Engrenage gauche" d="M616.586,1662.88c-142.746,-134.984 -231.862,-326.106 -231.862,-537.878c-0,-408.57 331.706,-740.276 740.276,-740.276c69.401,-0 136.585,9.571 200.301,27.464l149.212,-147.668c-68.383,-36.818 -147.296,-49.315 -224.257,-59.79l15.228,-111.88c-93.226,-12.689 -187.742,-12.689 -280.968,-0l15.228,111.88c-77.727,10.58 -153.801,30.963 -226.404,60.665l-42.752,-104.505c-87.081,35.624 -168.934,82.882 -243.326,140.484l69.128,89.277c-62.024,48.026 -117.713,103.715 -165.739,165.739l-89.277,-69.128c-57.602,74.392 -104.86,156.245 -140.484,243.326l104.505,42.752c-29.702,72.603 -50.085,148.677 -60.665,226.404l-111.88,-15.228c-12.689,93.226 -12.689,187.742 -0,280.968l111.88,-15.228c10.58,77.727 30.963,153.801 60.665,226.404l-104.505,42.752c35.624,87.081 82.882,168.934 140.484,243.326l89.277,-69.128c35.725,46.139 75.692,88.772 119.352,127.353"/><path id="ECLAIR" d="M1875,12.5l-1208.33,1195.83l402.222,0l-693.889,1029.17l1208.33,-1195.83l-402.214,-0l693.881,-1029.17Z" style="fill:#ff7e00;"/><g id="Texte-ECLAIR" serif:id="Texte ECLAIR"><g id="R"><path d="M1689.85,1050.24c8.644,2.884 14.761,13.085 15.582,19.787c3.653,29.843 -21.687,38.251 -52.907,40.133c-6.04,0.364 -11.227,4.419 -13.038,10.192c-1.811,5.773 0.131,12.065 4.881,15.813c32.827,25.903 60.067,57.676 71.69,90.519c2.685,7.587 11.025,11.568 18.613,8.883c7.587,-2.686 11.567,-11.026 8.882,-18.613c-10.293,-29.087 -30.959,-57.73 -57.214,-82.91c19.193,-5.563 33.965,-15.363 41.859,-29.759c5.502,-10.035 8.063,-22.46 6.184,-37.802c-1.835,-14.993 -15.966,-37.46 -35.302,-43.911c-7.635,-2.547 -15.902,1.584 -18.449,9.219c-2.547,7.635 1.584,15.902 9.219,18.449Z" style="fill:#ff7e00;"/><circle cx="1660.54" cy="1030.15" r="14.583" style="fill:#ff7e00;"/></g><path id="I" d="M1485.4,1221.82l-0,-191.667c-0,-8.049 -6.535,-14.583 -14.584,-14.583c-8.048,-0 -14.583,6.534 -14.583,14.583l0,191.667c0,8.048 6.535,14.583 14.583,14.583c8.049,-0 14.584,-6.535 14.584,-14.583Z"/><g id="A"><circle cx="1309.23" cy="1221.82" r="14.583"/><path d="M1310.16,1183.64l-61.098,-158.732c-2.17,-5.637 -7.592,-9.354 -13.633,-9.344c-6.041,0.009 -11.451,3.742 -13.603,9.386l-73.025,191.473c-2.868,7.52 0.909,15.954 8.43,18.822c7.52,2.868 15.954,-0.909 18.822,-8.429l59.461,-155.909c0,-0 47.426,123.21 47.426,123.21c2.891,7.512 11.337,11.263 18.848,8.371c7.512,-2.891 11.263,-11.337 8.372,-18.848Z"/></g><g id="L"><path d="M993.014,1236.4l64.266,-0c8.049,-0 14.584,-6.535 14.584,-14.583c-0,-8.049 -6.535,-14.584 -14.584,-14.584l-64.266,0c-8.048,0 -14.583,6.535 -14.583,14.584c0,8.048 6.535,14.583 14.583,14.583Z"/><path d="M969.132,1221.82l-0,-191.667c-0,-8.049 -6.535,-14.583 -14.583,-14.583c-8.049,-0 -14.584,6.534 -14.584,14.583l0,191.667c0,8.048 6.535,14.583 14.584,14.583c8.048,-0 14.583,-6.535 14.583,-14.583Z"/></g><g id="C"><circle cx="851.169" cy="1051.1" r="14.583"/><path d="M823.337,1018.96c-22.837,-6.85 -50.546,-2.188 -66.438,6.049c-43.562,22.58 -60.826,74.812 -53.743,121.834c7.264,48.219 39.554,89.564 90.65,89.564c37.147,-0 61.704,-15.195 74.981,-32.402c4.917,-6.372 3.736,-15.538 -2.636,-20.455c-6.372,-4.917 -15.538,-3.736 -20.455,2.636c-9.102,11.797 -26.423,21.054 -51.89,21.054c-35.89,0 -56.707,-30.872 -61.808,-64.741c-5.282,-35.062 5.842,-74.759 38.323,-91.595c10.676,-5.534 29.296,-8.608 44.637,-4.007c7.709,2.312 15.846,-2.069 18.158,-9.779c2.312,-7.709 -2.069,-15.846 -9.779,-18.158Z"/></g><g id="E"><path d="M500.522,1235.51l128.431,-0.195c8.049,-0.012 14.574,-6.556 14.561,-14.605c-0.012,-8.049 -6.556,-14.574 -14.605,-14.561l-128.431,0.194c-8.049,0.013 -14.573,6.557 -14.561,14.606c0.012,8.049 6.556,14.573 14.605,14.561Z" style="fill:#ff7e00;"/><circle cx="628.958" cy="1125" r="14.583" style="fill:#ff7e00;"/><path d="M500.498,1139.49l86.68,0.014c8.049,0.002 14.585,-6.532 14.586,-14.58c0.002,-8.049 -6.532,-14.585 -14.581,-14.586l-86.68,-0.015c-8.049,-0.001 -14.585,6.532 -14.586,14.581c-0.002,8.049 6.532,14.585 14.581,14.586Z" style="fill:#ff7e00;"/><path d="M500.5,1043.65l128.431,-0c8.049,-0 14.583,-6.535 14.583,-14.584c0,-8.048 -6.534,-14.583 -14.583,-14.583l-128.431,-0c-8.049,-0 -14.583,6.535 -14.583,14.583c-0,8.049 6.534,14.584 14.583,14.584Z" style="fill:#ff7e00;"/></g></g></svg>